<svg xmlns="http://www.w3.org/2000/svg" xmlns:xlink="http://www.w3.org/1999/xlink" version="1.1" x="0px" y="0px" viewBox="0 0 100 100" enable-background="new 0 0 100 100" xml:space="preserve"><polygon points="74.107,61.537 52.271,54.443 96.519,40.066 "></polygon><polygon points="65.333,34.533 96.084,38.73 51.838,53.107 "></polygon><polygon points="50.701,52.283 50.701,5.757 64.197,33.708 "></polygon><polygon points="49.298,52.283 35.803,33.708 49.298,5.757 "></polygon><polygon points="48.161,53.107 3.915,38.73 34.667,34.533 "></polygon><polygon points="49.298,79.563 21.952,94.242 49.298,56.604 "></polygon><polygon points="50.701,56.604 78.049,94.242 50.701,79.563 "></polygon><polygon points="3.481,40.066 47.728,54.443 25.893,61.537 "></polygon><polygon points="26.327,62.875 48.161,55.779 20.815,93.418 "></polygon><polygon points="79.184,93.418 51.838,55.779 73.673,62.875 "></polygon></svg>