<svg xmlns="http://www.w3.org/2000/svg" xmlns:xlink="http://www.w3.org/1999/xlink" version="1.1" x="0px" y="0px" viewBox="0 0 100 100" enable-background="new 0 0 100 100" xml:space="preserve"><path d="M84.541,34.697H68.447l-9.39-11.774l11.977-11.976C78.391,16.557,83.449,25.029,84.541,34.697z"></path><polygon points="63.809,52.44 50,66.494 36.192,52.44 32.727,35.645 42.315,23.62 57.685,23.62 67.273,35.645 "></polygon><path d="M69.798,10.049L57.735,22.111H42.265L30.201,10.049C35.824,6.137,42.647,3.837,50,3.837  C57.354,3.837,64.175,6.137,69.798,10.049z"></path><path d="M28.966,10.945l11.977,11.978l-9.389,11.774H15.456C16.543,25.032,21.604,16.557,28.966,10.945z"></path><path d="M15.23,38.607c0-0.809,0.038-1.608,0.092-2.402h15.979l3.375,16.359L21.214,66.027c-0.795-1.797-1.472-3.54-2.043-5.188  C14.97,48.729,15.228,38.729,15.23,38.607z"></path><path d="M21.882,67.491l13.611-13.61l13.753,13.997v28.284C34.698,88.47,26.491,77.271,21.882,67.491z"></path><path d="M50.755,96.162V67.878l13.752-13.997l13.611,13.61C73.504,77.277,65.297,88.472,50.755,96.162z"></path><path d="M80.849,60.786c-0.576,1.665-1.26,3.424-2.063,5.241L65.323,52.564l3.375-16.359h15.979  c0.055,0.802,0.093,1.608,0.093,2.425C84.773,38.729,85.035,48.683,80.849,60.786z"></path></svg>