<svg xmlns="http://www.w3.org/2000/svg" xmlns:xlink="http://www.w3.org/1999/xlink" version="1.1" x="0px" y="0px" viewBox="0 0 100 100" enable-background="new 0 0 100 100" xml:space="preserve"><polygon points="74.271,39.13 60.869,25.729 69.247,5.503 94.497,30.753 "></polygon><polygon points="59.668,73.34 40.332,73.34 26.66,59.668 26.66,40.333 40.332,26.661 59.668,26.661 73.341,40.333 73.341,59.668 "></polygon><polygon points="59.477,25.153 40.524,25.153 32.146,4.927 67.854,4.927 "></polygon><polygon points="39.131,25.729 25.729,39.13 5.504,30.753 30.754,5.503 "></polygon><polygon points="25.152,40.524 25.152,59.476 4.928,67.854 4.928,32.146 "></polygon><polygon points="25.729,60.869 39.131,74.271 30.754,94.495 5.504,69.248 "></polygon><polygon points="40.524,74.848 59.477,74.848 67.854,95.072 32.146,95.072 "></polygon><polygon points="60.869,74.271 74.271,60.869 94.497,69.248 69.247,94.495 "></polygon><polygon points="74.849,59.476 74.849,40.524 95.073,32.146 95.073,67.854 "></polygon></svg>