<?xml version="1.0" encoding="UTF-8" standalone="no"?>
<!DOCTYPE svg PUBLIC "-//W3C//DTD SVG 1.1//EN" "http://www.w3.org/Graphics/SVG/1.1/DTD/svg11.dtd">
<svg width="100%" height="100%" viewBox="0 0 100 100" version="1.1" xmlns="http://www.w3.org/2000/svg" xmlns:xlink="http://www.w3.org/1999/xlink" xml:space="preserve" xmlns:serif="http://www.serif.com/" style="fill-rule:evenodd;clip-rule:evenodd;stroke-linejoin:round;stroke-miterlimit:2;">
    <g transform="matrix(-1,1.22465e-16,-1.22465e-16,-1,100,99.999)">
        <path d="M84.541,34.697L68.447,34.697L59.057,22.923L71.034,10.947C78.391,16.557 83.449,25.029 84.541,34.697Z" style="fill-rule:nonzero;"/>
    </g>
    <g transform="matrix(-1,1.22465e-16,-1.22465e-16,-1,100,99.999)">
        <path d="M63.809,52.44L50,66.494L36.192,52.44L32.727,35.645L42.315,23.62L57.685,23.62L67.273,35.645L63.809,52.44Z" style="fill-rule:nonzero;"/>
    </g>
    <g transform="matrix(-1,1.22465e-16,-1.22465e-16,-1,100,99.999)">
        <path d="M69.798,10.049L57.735,22.111L42.265,22.111L30.201,10.049C35.824,6.137 42.647,3.837 50,3.837C57.354,3.837 64.175,6.137 69.798,10.049Z" style="fill-rule:nonzero;"/>
    </g>
    <g transform="matrix(-1,1.22465e-16,-1.22465e-16,-1,100,99.999)">
        <path d="M28.966,10.945L40.943,22.923L31.554,34.697L15.456,34.697C16.543,25.032 21.604,16.557 28.966,10.945Z" style="fill-rule:nonzero;"/>
    </g>
    <g transform="matrix(-1,1.22465e-16,-1.22465e-16,-1,100,99.999)">
        <path d="M15.23,38.607C15.23,37.798 15.268,36.999 15.322,36.205L31.301,36.205L34.676,52.564L21.214,66.027C20.419,64.23 19.742,62.487 19.171,60.839C14.97,48.729 15.228,38.729 15.23,38.607Z" style="fill-rule:nonzero;"/>
    </g>
    <g transform="matrix(-1,1.22465e-16,-1.22465e-16,-1,100,99.999)">
        <path d="M21.882,67.491L35.493,53.881L49.246,67.878L49.246,96.162C34.698,88.47 26.491,77.271 21.882,67.491Z" style="fill-rule:nonzero;"/>
    </g>
    <g transform="matrix(-1,1.22465e-16,-1.22465e-16,-1,100,99.999)">
        <path d="M50.755,96.162L50.755,67.878L64.507,53.881L78.118,67.491C73.504,77.277 65.297,88.472 50.755,96.162Z" style="fill-rule:nonzero;"/>
    </g>
    <g transform="matrix(-1,1.22465e-16,-1.22465e-16,-1,100,99.999)">
        <path d="M80.849,60.786C80.273,62.451 79.589,64.21 78.786,66.027L65.323,52.564L68.698,36.205L84.677,36.205C84.732,37.007 84.77,37.813 84.77,38.63C84.773,38.729 85.035,48.683 80.849,60.786Z" style="fill-rule:nonzero;"/>
    </g>
</svg>
