<?xml version="1.0" encoding="UTF-8" standalone="no"?>
<!DOCTYPE svg PUBLIC "-//W3C//DTD SVG 1.1//EN" "http://www.w3.org/Graphics/SVG/1.1/DTD/svg11.dtd">
<svg width="100%" height="100%" viewBox="0 0 90 90" version="1.1" xmlns="http://www.w3.org/2000/svg" xmlns:xlink="http://www.w3.org/1999/xlink" xml:space="preserve" xmlns:serif="http://www.serif.com/" style="fill-rule:evenodd;clip-rule:evenodd;stroke-linecap:round;stroke-linejoin:round;stroke-miterlimit:1.5;">
    <g transform="matrix(0.925,0,0,0.925,3.375,3.375)">
        <path d="M15,5L75,5L84,15L84,75L75,85L15,85L6,75L6,15L15,5Z" style="fill:rgb(40,78,249);"/>
        <clipPath id="_clip1">
            <path d="M15,5L75,5L84,15L84,75L75,85L15,85L6,75L6,15L15,5Z"/>
        </clipPath>
        <g clip-path="url(#_clip1)">
            <g transform="matrix(1.32432,0,0,1.32432,-17.2432,-17.2432)">
                <rect x="29" y="29" width="36" height="36" style="fill:none;stroke:rgb(5,36,174);stroke-width:2.45px;"/>
            </g>
            <path d="M6,15L21.162,21.162L15,5" style="fill:none;stroke:rgb(5,36,174);stroke-width:3.24px;"/>
            <path d="M75,5L68.838,21.162L84,15" style="fill:none;stroke:rgb(5,36,174);stroke-width:3.24px;"/>
            <path d="M84,75L68.838,68.838L75,85" style="fill:none;stroke:rgb(5,36,174);stroke-width:3.24px;"/>
            <path d="M15,85L21.162,68.838L6,75" style="fill:none;stroke:rgb(5,36,174);stroke-width:3.24px;"/>
        </g>
        <path d="M15,5L75,5L84,15L84,75L75,85L15,85L6,75L6,15L15,5Z" style="fill:none;stroke:rgb(5,36,174);stroke-width:3.24px;"/>
    </g>
</svg>
