<?xml version="1.0" encoding="UTF-8" standalone="no"?>
<!DOCTYPE svg PUBLIC "-//W3C//DTD SVG 1.1//EN" "http://www.w3.org/Graphics/SVG/1.1/DTD/svg11.dtd">
<svg width="100%" height="100%" viewBox="0 0 90 90" version="1.1" xmlns="http://www.w3.org/2000/svg" xmlns:xlink="http://www.w3.org/1999/xlink" xml:space="preserve" xmlns:serif="http://www.serif.com/" style="fill-rule:evenodd;clip-rule:evenodd;stroke-linecap:round;stroke-linejoin:round;stroke-miterlimit:1.5;">
    <g transform="matrix(0.891424,0.891424,-0.891424,0.891424,30.2343,-44.016)">
        <rect x="34.191" y="17.627" width="48.04" height="48.04" style="fill:rgb(223,41,53);"/>
        <clipPath id="_clip1">
            <rect x="34.191" y="17.627" width="48.04" height="48.04"/>
        </clipPath>
        <g clip-path="url(#_clip1)">
            <g transform="matrix(0.5609,-0.5609,0.5609,0.5609,7.73019,41.647)">
                <path d="M37,29L10,36L45,3L45,20.732L37,29Z" style="fill:rgb(239,89,97);"/>
            </g>
            <g transform="matrix(0.5609,-0.5609,0.5609,0.5609,7.73019,41.647)">
                <path d="M38,63L65,49L45,69L38,63Z" style="fill:rgb(239,89,97);"/>
            </g>
            <g transform="matrix(0.5609,-0.5609,0.5609,0.5609,7.73019,41.647)">
                <path d="M20.732,45L2.176,45L24,66.824L45,69L20.732,45Z" style="fill:rgb(185,16,27);"/>
            </g>
            <g transform="matrix(0.5609,-0.5609,0.5609,0.5609,7.73019,41.647)">
                <path d="M63,39L59,16L45,21L63,39Z" style="fill:rgb(239,89,97);"/>
            </g>
            <g transform="matrix(0.5609,-0.5609,0.5609,0.5609,7.73019,41.647)">
                <path d="M45,77L27.5,52L45,69.268L45,77Z" style="fill:rgb(239,89,97);"/>
            </g>
            <g transform="matrix(0.5609,-0.5609,0.5609,0.5609,7.73019,41.647)">
                <path d="M69.268,45L87,45L59.5,72.824L69.268,45Z" style="fill:rgb(239,89,97);"/>
            </g>
            <g transform="matrix(0.5609,-0.5609,0.5609,0.5609,7.73019,41.647)">
                <path d="M45,87.824L82,51L45,78L45,87.824Z" style="fill:rgb(185,16,27);"/>
            </g>
            <g transform="matrix(0.5609,-0.5609,0.5609,0.5609,7.73019,41.647)">
                <path d="M32,57L53,62L45,69.268L32,57Z" style="fill:rgb(185,16,27);"/>
            </g>
            <g transform="matrix(0.5609,-0.5609,0.5609,0.5609,7.73019,41.647)">
                <path d="M20.732,45L31,16L2.176,45L20.732,45Z" style="fill:rgb(185,16,27);"/>
            </g>
            <g transform="matrix(0.5609,-0.5609,0.5609,0.5609,7.73019,41.647)">
                <path d="M45,2.176L74,30.5L49,24.5L45,20.732L45,2.176Z" style="fill:rgb(185,16,27);"/>
            </g>
            <g transform="matrix(0.5609,-0.5609,0.5609,0.5609,7.73019,41.647)">
                <path d="M10,45L18,60L2.176,45L10,45Z" style="fill:rgb(239,89,97);"/>
            </g>
            <g transform="matrix(0.566699,0,0,0.566699,25.223,18.0457)">
                <rect x="34.191" y="17.627" width="48.04" height="48.04" style="fill:none;stroke:rgb(135,13,19);stroke-width:4.2px;"/>
            </g>
            <g transform="matrix(0.670501,-0.670501,0.670501,0.670501,-2.13388,41.647)">
                <path d="M45,9.176L45,24.699L65.301,45L80.824,45L45,80.824L45,65.301L24.699,45L9.176,45" style="fill:none;stroke:rgb(135,13,19);stroke-width:2.51px;"/>
            </g>
            <g transform="matrix(0.5609,-0.311611,0.5609,0.311611,8.29109,38.4686)">
                <path d="M44,29L35,38" style="fill:none;stroke:rgb(252,224,225);stroke-width:3px;"/>
            </g>
            <g transform="matrix(0.5609,-0.0623222,0.5609,0.0623222,8.29109,43.7036)">
                <path d="M44,29L35,38" style="fill:none;stroke:rgb(252,224,225);stroke-width:3px;"/>
            </g>
        </g>
        <rect x="34.191" y="17.627" width="48.04" height="48.04" style="fill:none;stroke:rgb(135,13,19);stroke-width:2.38px;"/>
    </g>
</svg>
