<?xml version="1.0" encoding="UTF-8" standalone="no"?>
<!DOCTYPE svg PUBLIC "-//W3C//DTD SVG 1.1//EN" "http://www.w3.org/Graphics/SVG/1.1/DTD/svg11.dtd">
<svg width="100%" height="100%" viewBox="0 0 90 90" version="1.1" xmlns="http://www.w3.org/2000/svg" xmlns:xlink="http://www.w3.org/1999/xlink" xml:space="preserve" xmlns:serif="http://www.serif.com/" style="fill-rule:evenodd;clip-rule:evenodd;stroke-linecap:round;stroke-linejoin:round;stroke-miterlimit:1.5;">
    <g transform="matrix(7.34788e-17,1.2,-1.2,7.34788e-17,99,-9)">
        <path d="M45,10L15,27L15,63L45,80L75,63L75,27L45,10Z" style="fill:rgb(160,75,210);"/>
        <clipPath id="_clip1">
            <path d="M45,10L15,27L15,63L45,80L75,63L75,27L45,10Z"/>
        </clipPath>
        <g clip-path="url(#_clip1)">
            <g transform="matrix(0.464116,0.267836,-0.267836,0.464116,36.1674,12.0621)">
                <path d="M45,10L15,27L15,63L45,80L75,63L75,27L45,10Z" style="fill:none;stroke:rgb(105,36,143);stroke-width:4.67px;"/>
            </g>
            <path d="M45,10L55,28.611L75,27L63.745,45L75,63L54,61.389L45,80L36,61.389L15,63L26.255,45L15,27L36,28.611L45,10Z" style="fill:none;stroke:rgb(105,36,143);stroke-width:2.5px;"/>
        </g>
        <path d="M45,10L15,27L15,63L45,80L75,63L75,27L45,10Z" style="fill:none;stroke:rgb(105,36,143);stroke-width:2.5px;"/>
    </g>
</svg>
